PathFileType	4	(X/Y/Z)	C:\Users\Biomechanik\SynologyDrive\AlexP\Athlete_03\Athlete_3_22_07_06\sq_85_EMG\marker_experimental.trc
DataRate	CameraRate	NumFrames	NumMarkers	Units	OrigDataRate	OrigDataStartFrame	OrigNumFrames
200.000000	200.000000	4	58	mm	200.000000	193	1544
Frame#	Time	BL			BR			GLAB			RFHD			LFHD			C7			T6			SPINMOL			SPINM2			SPINM3			T12			BELTOL			BELT2			BELT3			SACROL			SACR2			SACR3			LTHOL			LTH2			LTH3			LSHAOL			LSHA2			LSHA3			LHEE			LTOE			LM5			RTHOL			RTH2			RTH3			RSHAOL			RSHA2			RSHA3			RHEE			RTOE			RM5			STRN			XIPH			LACR			LUAOL			LUA2			LUA3			LLAOL			LLA2			LLA3			LWRU			RACR			RUAOL			RUA3			RLAOL			RLA2			RLA3			RWRU			USERMO0			USERMO1			USERMO2			USERMO3			USERMO4			USERMO5			
		X1	Y1	Z1	X2	Y2	Z2	X3	Y3	Z3	X4	Y4	Z4	X5	Y5	Z5	X6	Y6	Z6	X7	Y7	Z7	X8	Y8	Z8	X9	Y9	Z9	X10	Y10	Z10	X11	Y11	Z11	X12	Y12	Z12	X13	Y13	Z13	X14	Y14	Z14	X15	Y15	Z15	X16	Y16	Z16	X17	Y17	Z17	X18	Y18	Z18	X19	Y19	Z19	X20	Y20	Z20	X21	Y21	Z21	X22	Y22	Z22	X23	Y23	Z23	X24	Y24	Z24	X25	Y25	Z25	X26	Y26	Z26	X27	Y27	Z27	X28	Y28	Z28	X29	Y29	Z29	X30	Y30	Z30	X31	Y31	Z31	X32	Y32	Z32	X33	Y33	Z33	X34	Y34	Z34	X35	Y35	Z35	X36	Y36	Z36	X37	Y37	Z37	X38	Y38	Z38	X39	Y39	Z39	X40	Y40	Z40	X41	Y41	Z41	X42	Y42	Z42	X43	Y43	Z43	X44	Y44	Z44	X45	Y45	Z45	X46	Y46	Z46	X47	Y47	Z47	X48	Y48	Z48	X49	Y49	Z49	X50	Y50	Z50	X51	Y51	Z51	X52	Y52	Z52	X53	Y53	Z53	X54	Y54	Z54	X55	Y55	Z55	X56	Y56	Z56	X57	Y57	Z57	X58	Y58	Z58	

194	0.965	125.7970733642578	1261.198608398438	-2274.997802734375	176.5068359375	1273.0732421875	-53.59708404541008	513.5310668945312	1438.299194335938	-1136.403198242188	448.6473693847656	1452.155639648438	-1063.509155273438	456.2381286621094	1454.839965820312	-1218.761352539062	258.0469665527344	1373.387451171875	-1145.932861328125	100.1892929077148	1245.508666992188	-1153.997192382812	78.29008483886719	1215.537231445312	-1160.162841796875	44.0149040222168	1159.803588867188	-1114.170776367188	55.11674499511719	1158.26123046875	-1162.864379882812	39.20555877685547	1101.627319335938	-1163.40966796875	4.20216703414917	1062.79931640625	-1163.760375976562	-6.838428974151611	1002.023620605469	-1113.104736328125	-11.22238159179688	1002.545959472656	-1163.092407226562	-14.8198184967041	930.0587768554689	-1191.67529296875	-6.966874599456787	939.6920776367189	-1142.06396484375	-39.71479797363281	882.9495239257814	-1152.495849609375	115.2800827026367	724.3955078125001	-1415.306030273438	74.66419982910156	655.5960693359376	-1410.35009765625	121.4421997070312	663.8432617187501	-1427.798461914062	97.57807159423828	327.3777465820314	-1519.509399414062	65.16257476806641	255.6246643066407	-1526.205200195312	111.7642669677734	269.3938293457032	-1537.020874023438	65.464599609375	35.94010925292978	-1508.24853515625	270.6825256347656	48.8200340270997	-1550.485717773438	211.5871429443359	24.31788635253916	-1647.593139648438	79.59295654296875	696.8238525390625	-913.2778930664062	116.8853302001953	634.5291748046875	-879.5425415039062	71.74577331542969	636.0047607421875	-901.77978515625	36.84700393676758	318.5005798339844	-819.9447021484375	81.28881072998047	261.6151123046876	-787.0956420898438	37.32468795776367	257.5959777832032	-810.9845581054688	34.08199691772461	34.33693695068364	-839.4238891601562	229.0786590576172	46.07311630249028	-763.8097534179688	162.5981903076172	36.03059005737309	-677.9568481445312	339.2728881835938	1222.192626953125	-1158.008056640625	306.5316467285156	1071.523681640625	-1154.6630859375	220.5175018310547	1317.254516601562	-1339.576049804688	83.18099212646484	1234.072265625	-1359.943603515625	47.94101333618164	1194.416870117188	-1320.144775390625	46.4678840637207	1191.233642578125	-1370.890869140625	30.25439262390137	1156.67236328125	-1446.121948242188	74.23976135253906	1171.065673828125	-1491.639892578125	73.40492248535156	1203.312622070312	-1453.412963867188	122.2484512329102	1245.969970703125	-1505.496704101562	232.2846832275391	1314.655151367188	-969.5764160156249	102.1087341308594	1214.983520507812	-933.9761352539061	44.74716186523438	1193.2890625	-942.1391601562499	52.26918411254883	1178.625610351562	-861.2454833984374	100.908821105957	1220.620971679688	-868.1448364257811	92.55338287353516	1204.645263671875	-820.0765380859374	127.8217010498047	1242.185424804688	-799.9342041015624	0.062773197889328	0.0145821999758482	-0.05479700118303299	0.01224199961870909	0.06016150116920472	-0.05948539823293685	0.02157980017364025	0.04572039842605591	-0.02345170080661773	0.08624599874019623	0.2003909945487977	-0.8278329968452454	0.3757239878177643	2.829519987106323	-0.3789179921150206	2.894089937210083	0	0	
195	0.97	125.851203918457	1261.380859375	-2275.023681640625	176.3913726806641	1272.948974609375	-53.61846160888664	513.3263549804688	1438.749755859375	-1136.316528320312	448.4071960449219	1452.399047851562	-1063.454223632812	456.005615234375	1455.185791015625	-1218.672119140625	257.9769592285156	1373.41015625	-1145.8984375	100.1929550170898	1245.506225585938	-1154.042724609375	78.29598236083984	1215.54052734375	-1160.221801757812	44.0153694152832	1159.810424804688	-1114.227905273438	55.12615585327148	1158.261352539062	-1162.919555664062	39.2127571105957	1101.638061523438	-1163.47607421875	4.225746631622314	1062.799438476562	-1163.825317382812	-6.846607685089111	1002.057739257813	-1113.140869140625	-11.18983459472656	1002.543762207031	-1163.1318359375	-14.80612182617188	930.0617065429689	-1191.658813476562	-6.96607780456543	939.7263793945314	-1142.051147460938	-39.71240615844727	882.9780273437501	-1152.46337890625	115.3156433105469	724.3718872070314	-1415.177124023438	74.68037414550781	655.5777587890626	-1410.237182617188	121.4686126708984	663.8222656250001	-1427.684692382812	97.56633758544922	327.3788452148439	-1519.444213867188	65.15590667724609	255.6208648681641	-1526.137573242188	111.7424621582031	269.402069091797	-1536.981811523438	65.46137237548828	35.9416275024415	-1508.244873046875	270.6807861328125	48.82120895385751	-1550.487548828125	211.589599609375	24.31823348999033	-1647.597534179688	79.51320648193359	696.8460083007812	-913.147705078125	116.7929229736328	634.5596313476562	-879.4116821289062	71.65736389160156	636.0269165039062	-901.6670532226562	36.79196548461914	318.4927062988282	-819.8922729492188	81.23176574707031	261.6080322265626	-787.0386352539062	37.27264785766602	257.5928649902344	-810.9385375976562	34.07483291625977	34.33445358276372	-839.417236328125	229.0747375488281	46.07812500000005	-763.8045043945312	162.5937957763672	36.02450180053715	-677.9511108398438	339.2778930664062	1222.280517578125	-1157.997680664062	306.651611328125	1071.560180664062	-1154.651123046875	220.5340881347656	1317.296508789062	-1339.582885742188	83.23257446289062	1234.049682617188	-1359.990112304688	48.00659561157227	1194.367797851562	-1320.206298828125	46.5410270690918	1191.192504882812	-1370.9541015625	30.353759765625	1156.6435546875	-1446.190673828125	74.33460998535156	1171.071411132812	-1491.70263671875	73.47663879394531	1203.309326171875	-1453.462036132812	122.2886581420898	1246.009399414062	-1505.538208007812	232.2402191162109	1314.675048828125	-969.5794677734374	102.104736328125	1214.930297851562	-933.9763183593749	44.75154876708984	1193.20068359375	-942.1358642578124	52.2975959777832	1178.523315429688	-861.2538452148436	100.9154663085938	1220.537719726562	-868.1659545898436	92.56368255615234	1204.563842773438	-820.0868530273436	127.8135223388672	1242.125610351562	-799.9537963867186	0.06283470243215561	0.01476799976080656	-0.0544717013835907	0.01228049956262112	0.06204010173678399	-0.05929499864578246	0.02180909924209118	0.04760650172829628	-0.0236882995814085	0.0874423012137413	0.1989589929580689	-0.8273959755897522	0.3767749965190887	2.828619956970215	-0.381743013858795	2.893970012664795	0	0	
196	0.975	125.9076461791992	1261.567749023438	-2275.052490234375	176.2777099609375	1272.8369140625	-53.642292022705	513.125	1439.198486328125	-1136.2392578125	448.1743774414062	1452.645385742188	-1063.406982421875	455.7745056152344	1455.53125	-1218.590454101562	257.90673828125	1373.439331054688	-1145.865478515625	100.1947326660156	1245.5068359375	-1154.091552734375	78.30406951904297	1215.545166015625	-1160.28369140625	44.01898956298828	1159.818359375	-1114.287475585938	55.13869857788086	1158.262451171875	-1162.976928710938	39.22373199462891	1101.650146484375	-1163.544555664062	4.254419326782227	1062.801391601562	-1163.890625	-6.847868919372559	1002.092407226563	-1113.177001953125	-11.15139770507812	1002.543334960938	-1163.171264648438	-14.78369235992432	930.0712280273439	-1191.6416015625	-6.957036018371582	939.7669067382814	-1142.039428710938	-39.70616149902344	883.0148925781251	-1152.430786132812	115.3411407470703	724.3474731445314	-1415.052856445312	74.68532562255859	655.5597534179689	-1410.12353515625	121.4839935302734	663.7998657226564	-1427.573120117188	97.54206085205078	327.3785400390626	-1519.375610351562	65.13994598388672	255.6144256591798	-1526.067138671875	111.7104187011719	269.409637451172	-1536.940551757812	65.45900726318359	35.94334030151376	-1508.240356445312	270.6787414550781	48.82237243652353	-1550.489868164062	211.5926361083984	24.31846809387217	-1647.603515625	79.44577026367188	696.869140625	-913.0164794921875	116.7107467651367	634.5906982421875	-879.2802124023438	71.57901763916016	636.0511474609375	-901.5529174804688	36.73956298828125	318.4877014160157	-819.8399047851562	81.17562103271484	261.6023864746094	-786.982177734375	37.22114562988281	257.5928649902344	-810.8921508789062	34.06715774536133	34.33204650878911	-839.4107666015625	229.0706787109375	46.08353805541997	-763.7994384765625	162.5896148681641	36.01880264282231	-677.9453125	339.2864685058594	1222.373046875	-1157.98974609375	306.7746887207031	1071.603759765625	-1154.640747070312	220.5511932373047	1317.344848632812	-1339.591430664062	83.28817749023438	1234.028686523438	-1360.041015625	48.0761604309082	1194.320556640625	-1320.27197265625	46.61900329589844	1191.151123046875	-1371.021118164062	30.46039199829102	1156.614013671875	-1446.261474609375	74.437255859375	1171.078247070312	-1491.76708984375	73.55171966552734	1203.308715820312	-1453.509765625	122.3322982788086	1246.051879882812	-1505.581298828125	232.1977233886719	1314.69921875	-969.5852661132811	102.1031188964844	1214.881958007812	-933.9806518554686	44.75787734985352	1193.1162109375	-942.1353149414061	52.32758712768555	1178.4267578125	-861.2640991210936	100.9241561889648	1220.45947265625	-868.1886596679686	92.57535552978516	1204.488647460938	-820.0989379882811	127.8065414428711	1242.07177734375	-799.9750366210936	0.06312660127878189	0.01491620019078255	-0.05412520095705986	0.01228979974985123	0.06363149732351303	-0.05905039981007575	0.02202240005135536	0.04989270120859146	-0.02403279952704906	0.08878219872713089	0.1977169960737229	-0.8270660042762756	0.377685010433197	2.827759981155396	-0.3846519887447356	2.893840074539185	0	0	
197	0.98	125.966926574707	1261.758911132813	-2275.0849609375	176.1661987304688	1272.73681640625	-53.66846847534172	512.9271240234375	1439.644775390625	-1136.172485351562	447.9486694335938	1452.893920898438	-1063.367309570312	455.5443115234375	1455.875122070312	-1218.5166015625	257.8359375	1373.474487304688	-1145.834228515625	100.1939239501953	1245.51025390625	-1154.143798828125	78.31364440917969	1215.55078125	-1160.347900390625	44.02480697631836	1159.827026367188	-1114.349365234375	55.15363693237305	1158.264282226562	-1163.036376953125	39.23741912841797	1101.663208007812	-1163.61474609375	4.287135124206543	1062.8046875	-1163.955688476562	-6.842682838439941	1002.126647949219	-1113.213256835938	-11.10777950286865	1002.543884277344	-1163.210693359375	-14.75290584564209	930.0863647460939	-1191.624267578125	-6.940311431884766	939.8118286132814	-1142.029174804688	-39.69573593139648	883.0579833984376	-1152.399047851562	115.3594741821289	724.3225097656251	-1414.933837890625	74.68131256103516	655.5426025390626	-1410.01123046875	121.4898986816406	663.7768554687501	-1427.465576171875	97.50636291503906	327.3768615722657	-1519.30419921875	65.11571502685547	255.6055603027345	-1525.99462890625	111.6696319580078	269.4163818359376	-1536.896850585938	65.45773315429688	35.94523620605478	-1508.234985351562	270.6764526367188	48.8234748840333	-1550.492919921875	211.5960540771484	24.31852912902842	-1647.610961914062	79.39181518554688	696.8931274414062	-912.8851318359375	116.6404724121094	634.6222534179688	-879.148681640625	71.51272583007812	636.0772094726562	-901.4381103515625	36.69187164306641	318.4858398437501	-819.78759765625	81.12217712402344	261.5983581542969	-786.926025390625	37.17224502563477	257.5957946777344	-810.8457641601562	34.05909729003906	34.32988739013677	-839.4046020507812	229.0665283203125	46.08925247192388	-763.79443359375	162.585693359375	36.01350784301762	-677.939453125	339.2979125976562	1222.469360351562	-1157.983642578125	306.8996887207031	1071.653686523438	-1154.632080078125	220.5686187744141	1317.399169921875	-1339.601684570312	83.34725952148438	1234.00927734375	-1360.09619140625	48.1489143371582	1194.275512695312	-1320.341552734375	46.70099258422852	1191.110107421875	-1371.091552734375	30.57310104370117	1156.584716796875	-1446.334106445312	74.54660797119141	1171.08642578125	-1491.8330078125	73.62954711914062	1203.310913085938	-1453.556518554688	122.3790512084961	1246.097412109375	-1505.625732421875	232.15673828125	1314.727172851562	-969.5933227539061	102.1028060913086	1214.838256835938	-933.9885864257811	44.76448822021484	1193.036376953125	-942.1365356445311	52.35798263549805	1178.335815429688	-861.2759399414061	100.9338760375977	1220.386352539062	-868.2128295898436	92.58754730224609	1204.419677734375	-820.1126098632811	127.8001861572266	1242.024291992188	-799.9976806640624	0.06357260048389435	0.01502699963748455	-0.05383719876408577	0.01226510014384985	0.06480439752340317	-0.05877140164375304	0.02222549915313721	0.05249369889497757	-0.02445320039987564	0.09032569825649261	0.1966210007667542	-0.8268809914588928	0.3784460127353668	2.82696008682251	-0.3876720070838927	2.893660068511963	0	0	
